<svg width="854" height="439" viewBox="0 0 854 439" fill="none" xmlns="http://www.w3.org/2000/svg">
<path d="M23.3333 1.59998C12.1333 5.59998 4.66665 13.6 1.33332 24.8C0.266652 28.5333 -1.42107e-05 81.8666 0.266652 222L0.666652 414L3.73332 420C7.99999 428 10.8 430.933 18.4 434.8L24.6667 438H426.667H828.667L834.933 434.8C842.533 430.933 845.333 428 849.6 420L852.667 414V219.333V24.6666L849.467 18.4C845.6 10.8 842.667 7.99998 834.667 3.73331L828.667 0.666644L428 0.399977C143.733 0.266644 26.1333 0.666644 23.3333 1.59998ZM824.133 5.33331C833.733 7.06664 841.067 12.4 845.2 20.6666L848.667 27.2V219.333V411.467L845.2 418C841.067 426.267 833.733 431.6 824.133 433.333C814.267 435.2 39.0667 435.2 29.2 433.333C19.6 431.6 12.2667 426.267 8.13332 418L4.66665 411.467V219.333V27.2L8.13332 20.6666C12.1333 12.8 19.6 7.06664 28 5.46664C36.6667 3.73331 815.067 3.59998 824.133 5.33331Z" fill="white"/>
<path d="M462 17.9999C455.2 20.3999 448.533 27.5999 446.667 34.3999C445.733 38.1333 445.467 95.0666 445.6 221.6C446 424.933 445.2 407.6 455.6 415.6L460.4 419.333L638.533 419.733C768.667 420 817.6 419.6 820.267 418.533C825.6 416.4 833.067 407.6 834 402.4C834.4 400 834.533 315.733 834.4 215.2L834 32.5333L830.4 26.9333C822.933 15.7333 840 16.6666 642.667 16.3999C494 16.1333 466.533 16.3999 462 17.9999ZM823.6 27.0666L828.667 31.9999L829.067 217.067C829.333 398.533 829.333 402.133 826.667 406.267C825.333 408.667 822.533 411.6 820.4 412.933C816.933 415.2 808.133 415.333 640.667 415.333C470.533 415.333 464.533 415.2 460.533 412.8C458.267 411.467 455.2 408.4 453.867 406.133C451.467 402.133 451.333 395.6 450.933 220.267C450.667 42.6666 450.667 38.3999 453.2 32.6666C454.8 29.0666 457.6 25.5999 460.267 23.9999C464.667 21.3333 465.867 21.3333 641.6 21.5999L818.667 21.9999L823.6 27.0666Z" fill="white"/>
<path d="M545.067 54.6667C535.467 57.4667 528 67.3333 528 76.8C528 83.8667 532.8 92.8 538.4 96.6667C544.133 100.533 555.067 101.2 561.2 98C577.867 89.4667 577.867 64.6667 561.333 56.2667C555.2 53.2 551.2 52.8 545.067 54.6667Z" fill="white"/>
<path d="M526 105.467C509.333 108.267 501.6 114.8 498.667 128.4C497.867 132.267 496.8 151.333 496.267 170.933C495.333 204.933 495.067 206.667 492.4 209.6C490.267 211.867 489.333 214.667 489.067 220L488.667 227.333L478.4 227.733L468 228.133V266V304H476.4C481.067 304 493.067 304.4 502.933 304.8L520.933 305.733L521.733 317.2C523.2 336.4 525.6 341.2 534.267 341.333C544.533 341.333 546.4 332.133 547.867 272.667C548.933 229.733 550.267 216.8 552.267 231.333C552.667 234.933 553.2 254.133 553.2 274C553.467 314.667 554.8 333.333 558 338.133C559.467 340.533 561.2 341.333 564.8 341.333C572.133 341.333 574.267 339.467 576 331.733C577.333 325.467 579.733 224.533 580 165.6C580 150.133 580.4 146.667 581.867 146.667C583.467 146.667 583.733 150.933 583.6 173.6C583.467 200.933 584.933 215.467 588.4 217.6C591.067 219.333 595.6 218.8 598.533 216.267C602.267 213.2 603.867 202.267 604.933 172C605.733 145.6 604.667 135.2 599.733 121.467C597.2 115.067 596.4 114.133 589.867 111.067C585.867 109.2 578 106.933 572.267 105.867C561.067 103.867 536.533 103.6 526 105.467ZM521.333 183.333C521.333 217.467 521.067 222.667 519.333 222.667C517.6 222.667 517.333 217.467 517.333 183.333C517.333 149.2 517.6 144 519.333 144C521.067 144 521.333 149.2 521.333 183.333ZM509.333 223.333V228H502.667H496V223.333V218.667H502.667H509.333V223.333Z" fill="white"/>
<path d="M767.467 114.667C754.4 118.667 748 138.133 755.067 152C759.2 160.267 767.867 166.667 775.067 166.667C781.733 166.667 786.933 163.467 791.6 156.667C796.533 149.333 797.467 143.733 795.067 135.6C790.267 119.333 779.333 111.067 767.467 114.667Z" fill="white"/>
<path d="M765.333 175.867C759.467 178.933 755.2 185.067 752.533 194.267C750.4 201.733 750.8 204.4 754.133 203.067C755.333 202.667 752.4 207.067 747.733 212.8C743.2 218.667 737.867 225.6 736 228.267C731.867 234.533 726.4 236.933 700.533 244C689.6 247.067 679.6 250.533 678.267 251.733C674.8 254.933 676 258.933 681.333 261.733C690.667 266.667 731.333 262.533 741.6 255.6C744 254 750.667 246.933 756.667 239.867C762.533 232.933 769.467 224.8 772 221.867C780.667 211.867 775.2 219.2 762.133 235.2L749.067 251.067L749.6 262.133L750 273.067L730.667 276.667C720 278.667 708.933 281.333 706 282.8C698.667 286.133 694.4 293.333 689.6 310.4C687.333 318.267 682.267 336.533 678.133 350.933C674 365.467 670.667 378.667 670.667 380.4C670.667 388.933 683.333 392.4 689.733 385.6C691.733 383.6 693.333 381.333 693.333 380.533C693.333 379.867 696.933 369.067 701.333 356.667C705.6 344.133 710.8 328.8 712.8 322.533L716.267 310.933L731.067 309.467C739.333 308.667 753.067 307.467 761.733 306.8C785.2 304.933 795.067 299.467 794.933 288.133C794.8 280.933 792.533 276.267 787.733 273.2C783.867 270.8 781.733 270.533 768.667 271.067C760.667 271.333 755.867 271.067 758 270.533C760.267 270.133 766.8 269.6 772.667 269.467C781.6 269.333 784.267 269.867 788.8 272.533L794.267 275.6L796.533 244.8C799.067 209.2 799.2 197.467 797.2 190C793.6 176.667 777.333 169.467 765.333 175.867ZM773.333 187.6C771.467 188 766.8 191.333 762.8 195.067L755.6 202L759.867 196.267C765.333 189.2 769.067 186.667 773.333 186.8L776.667 187.067L773.333 187.6ZM782.533 191.467C786.267 196.267 786 201.867 782 208.933C780.133 212 778.267 214.667 777.867 214.667C777.467 214.667 778.8 212 780.667 208.933C784.933 201.6 784.933 197.2 780.533 192.133C778.667 189.867 777.733 188 778.4 188C779.2 188 781.067 189.6 782.533 191.467Z" fill="white"/>
<path d="M804.933 190.133C804.4 190.667 804 200.4 804 211.867C804 223.333 803.6 251.067 803.067 273.733L802.267 314.667H763.067H724V352V389.333H729.333H734.667V359.333V329.333H768.667H802.667L802.933 359.067L803.333 388.667H807.333H811.333L811.733 289.6C811.867 229.733 811.467 190.667 810.8 190.667C810.133 190.667 808.667 190.4 807.733 190C806.667 189.6 805.467 189.733 804.933 190.133Z" fill="white"/>
<path d="M597.6 271.6L598 275.333L613.067 275.733L628 276.133V332.667V389.333H634.667H641.333V332.667V276H678.667H716V272V268H656.533H597.2L597.6 271.6Z" fill="white"/>
<path d="M48 153.333V159.867L59.0667 160.267L70 160.667L70.4 192.267L70.6667 224H78H85.3333V192V160H96.6667H108V153.333V146.667H78H48V153.333Z" fill="white"/>
<path d="M118.267 147.6C117.733 148 117.333 165.467 117.333 186.267V224H124.667H132V206.933C132 193.467 132.533 189.067 134.4 185.333C138.533 177.067 149.067 176.267 151.867 184.133C152.667 186.533 153.333 196.4 153.333 206.133V224H160.667H168V204.933C168 194.533 167.467 183.733 166.8 180.933C163.6 167.467 149.2 162.933 136.8 171.333L132 174.533V160.667V146.667H125.6C122 146.667 118.667 147.067 118.267 147.6Z" fill="white"/>
<path d="M195.067 168.4C188.667 170.8 182 177.733 180.267 183.733C176.533 196.267 179.333 212.933 186.4 219.067C196.267 227.867 213.6 226.933 223.067 217.067C229.067 210.8 229.333 208.533 223.867 207.467C216.4 206 213.733 206.533 211.467 210C206.933 216.933 193.333 212 193.333 203.333V200H211.467H229.733L228.933 192.8C227.467 178.133 218.8 168.533 205.867 167.333C202.267 166.933 197.467 167.467 195.067 168.4ZM208.667 179.467C210.8 180.267 214.667 186.667 214.667 189.333C214.667 190.133 210.533 190.667 204 190.667C194.133 190.667 193.333 190.4 193.333 188C193.333 181.867 202.133 176.933 208.667 179.467Z" fill="white"/>
<path d="M86.2666 258.667C78.1333 260.8 71.6 264.8 65.4666 271.333C58.2666 279.2 55.0666 286.267 53.2 299.2C49.2 325.867 60.5333 349.6 81.0666 357.333C91.8666 361.467 109.733 360.667 119.467 355.733C127.733 351.333 135.2 343.333 139.867 333.467C143.067 326.667 143.333 324.533 143.333 310C143.333 297.867 142.8 292.267 140.933 286.933C134.933 269.867 120 258.933 101.2 258C95.7333 257.733 89.0666 258 86.2666 258.667ZM110.8 278.133C119.733 282.667 124.667 295.6 123.733 311.867C123.333 318 122 324.4 120.4 328.133C113.733 343.067 95.0666 347.467 83.0666 336.933C75.6 330.4 72.9333 322.933 72.9333 308.667C72.9333 290.667 78.1333 280.933 90.2666 276.533C96 274.4 105.2 275.2 110.8 278.133Z" fill="white"/>
<path d="M171.333 259.733C163.867 263.333 162.533 265.333 160.933 276.667L159.467 286.667H155.067H150.667V294V301.333H155.333H160L160.267 329.6L160.667 358L169.733 358.4L178.667 358.8V330V301.333H185.333H192V294V286.667H185.333C178.667 286.667 178.667 286.667 178.667 282.267C178.667 275.2 181.333 272.667 188.4 273.067L194.533 273.333L195.467 267.2C196 263.6 195.733 260.533 194.933 259.733C194.133 258.933 189.733 258.133 185.067 257.867C178.667 257.333 175.333 257.867 171.333 259.733Z" fill="white"/>
<path d="M216.4 258.667C209.333 260.933 205.6 266.667 204.533 277.333L203.6 286.667H199.2H194.667V294V301.333H199.333H204L204.267 329.6L204.667 358L213.733 358.4L222.667 358.8V330V301.333H229.333H236V294V286.667H229.333C222.667 286.667 222.667 286.667 222.667 282.267C222.667 275.2 225.333 272.667 232.4 273.067L238.533 273.333L239.467 267.2C240 263.6 239.733 260.533 238.933 259.733C237.067 257.867 221.6 257.2 216.4 258.667Z" fill="white"/>
<path d="M246.667 268V277.333H255.333H264V268V258.667H255.333H246.667V268Z" fill="white"/>
<path d="M299.867 287.2C293.067 289.6 289.333 292.533 285.2 298.8C280.533 305.6 278.133 317.067 279.067 327.6C280 337.733 282.4 343.333 288.133 350C294.267 356.933 301.333 360 311.733 360C325.333 360 335.067 354.4 340.133 343.333C344.133 334.667 343.733 334 334.133 332.533C325.6 331.2 325.467 331.333 324.667 334.4C323.333 339.733 318 344 312.667 344C306.267 344 303.2 342.133 300.4 336.933C297.6 331.6 297.2 314.533 299.867 308.267C304.133 298.133 318.8 297.333 322.8 306.933C324.4 310.8 324.667 310.933 330.933 310.133C334.4 309.6 338.533 308.8 340 308.267C342.533 307.333 342.533 307.2 340.133 301.867C337.067 295.2 333.067 291.067 326 287.867C319.733 284.933 307.067 284.667 299.867 287.2Z" fill="white"/>
<path d="M368.4 288.667C360.4 292.667 355.733 298.933 352.533 309.867C348.133 325.6 353.067 346.4 363.067 353.867C372.533 360.933 388.533 362.267 398.8 356.933C404 354.267 413.333 343.333 413.333 340C413.333 338.533 410.667 337.733 402.267 336.667C396.133 335.867 394.667 336 394.667 337.6C394.667 341.067 388.8 345.333 383.867 345.333C378 345.333 373.6 342.267 371.2 336.533C367.467 327.733 366.933 328 392.133 328H415.067L414.133 319.467C412.4 302.8 407.467 294 396.8 288.667C387.733 284.133 377.6 284.133 368.4 288.667ZM391.333 302.933C393.333 304.8 395.067 308 395.6 310.933L396.4 316H382.8C374.4 316 369.333 315.467 369.333 314.667C369.333 311.467 373.333 304.133 376.133 302.133C380.533 299.067 387.2 299.467 391.333 302.933Z" fill="white"/>
<path d="M246.667 322.667V358.667H255.333H264V322.667V286.667H255.333H246.667V322.667Z" fill="white"/>
</svg>
